<?xml version="1.0" ?><svg xmlns="http://www.w3.org/2000/svg" xmlns:xlink="http://www.w3.org/1999/xlink" version="1.1" id="design" viewBox="0 0 100 100" style="enable-background:new 0 0 100 100;" xml:space="preserve"><style type="text/css">
	.st0{fill:#DCFFD2;}
	.st1{fill:#333333;}
</style><g><path class="st0" d="M43,44.3h34.6c1.6,0,2.8-1.3,2.8-2.8v-15c0-1.6-1.3-2.8-2.8-2.8H43c-1.6,0-2.8,1.3-2.8,2.8v15   C40.2,43,41.4,44.3,43,44.3z"/><g><path class="st1" d="M80,60.2c-0.2-1.5-1.1-2.7-2.4-3.5c-1.9-1.1-4.3-0.7-5.8,0.8l-6.2,6.3c-0.3-2.3-2.2-4.1-4.6-4.1H50.4    C45.4,55.3,38,55.1,32.7,59c-0.7-1.6-2.2-2.7-4.1-2.7h-8c-0.6,0-1.1,0.5-1.1,1.1v22.2c0,0.6,0.5,1.1,1.1,1.1h8    c1.8,0,3.4-1.1,4-2.7l2.6,1.7c1,0.7,2.2,1,3.5,1h22.3c1.8,0,3.6-0.8,4.8-2.2l12.9-14.3C79.8,63.1,80.2,61.7,80,60.2z M30.9,76.3    c0,1.2-1,2.2-2.2,2.2h-6.9v-20h6.9c1.2,0,2.2,1,2.2,2.2V76.3z M77.2,62.8L64.3,77.1c-0.8,0.9-2,1.4-3.2,1.4H38.8    c-0.8,0-1.6-0.2-2.3-0.7l-3.4-2.2V61.6c4.5-4.2,11.6-4.2,16.1,0.1c0.2,0.2,0.5,0.3,0.8,0.3h11c1.3,0,2.4,1.1,2.4,2.4    c0,1.3-1.1,2.4-2.4,2.4H48.2c-0.6,0-1.1,0.5-1.1,1.1s0.5,1.1,1.1,1.1H63c0.3,0,0.6-0.1,0.8-0.3l9.5-9.6c0.8-0.9,2.2-1,3.2-0.5    c0.7,0.4,1.2,1.1,1.3,1.9S77.7,62.2,77.2,62.8z"/><path class="st1" d="M53.9,46.6v0.9v2.8c0,2.8,2.3,5.1,5.1,5.1h2.4c2.8,0,5.1-2.3,5.1-5.1v-2.8v-0.9c0-2.7,0.9-5.2,2.5-7    c2-2.2,3.1-5.1,3.1-8.2c0-3.4-1.4-6.6-3.8-8.9c-2.4-2.3-5.4-3.4-8.7-3.3c-6.1,0.3-11.1,5.4-11.3,11.6c-0.1,3.1,0.9,6.1,2.9,8.5    C53,41.5,53.9,44,53.9,46.6z M64.4,50.3c0,1.6-1.3,2.9-2.9,2.9h-2.4c-1.6,0-2.9-1.3-2.9-2.9v-1.7h8.3V50.3z M50.6,31    c0.2-5.1,4.3-9.3,9.3-9.5c2.6-0.1,5.1,0.8,7.1,2.7c2,1.9,3.1,4.6,3.1,7.3c0,2.5-0.9,4.9-2.5,6.7c-1.9,2.2-3,5.1-3,8.2h-8.3    c0-3-1.2-6-3.2-8.4C51.3,36,50.5,33.5,50.6,31z"/><path class="st1" d="M60.3,35.2c0.6,0,1.1-0.5,1.1-1.1v-6.5c0-0.6-0.5-1.1-1.1-1.1s-1.1,0.5-1.1,1.1v6.5    C59.2,34.7,59.7,35.2,60.3,35.2z"/><path class="st1" d="M60.3,39.6L60.3,39.6c0.6,0,1.1-0.5,1.1-1.1s-0.5-1.1-1.1-1.1s-1.1,0.5-1.1,1.1S59.7,39.6,60.3,39.6z"/></g></g></svg>