<svg version="1.1" id="Layer_1" xmlns="http://www.w3.org/2000/svg" xmlns:xlink="http://www.w3.org/1999/xlink" x="0px" y="0px"
	 width="100%" viewBox="0 0 813 222" enable-background="new 0 0 813 222" xml:space="preserve">
<path fill="#0E0E0E" opacity="1.000000" stroke="none" 
	d="
M600.000000,223.000000 
	C400.048157,223.000000 200.596298,223.000000 1.072221,223.000000 
	C1.072221,149.066071 1.072221,75.132042 1.072221,1.099010 
	C271.999969,1.099010 543.000000,1.099010 813.973999,1.099010 
	C813.973999,75.070442 813.973999,149.035233 813.973999,223.000000 
	C742.798645,223.000000 671.649292,223.000000 600.000000,223.000000 
M98.499855,165.001160 
	C105.272446,165.001160 112.045029,165.001160 119.107231,165.001160 
	C119.107231,149.207108 119.073990,133.920258 119.118057,118.633614 
	C119.151482,107.037796 125.377159,100.742409 136.916046,100.506958 
	C142.738617,100.388145 148.588272,100.598297 154.378922,100.107674 
	C169.015198,98.867599 181.101288,87.330490 182.963058,73.208801 
	C184.984055,57.879417 176.450699,43.479706 162.537888,38.001270 
	C146.577271,31.716463 123.193459,40.048630 119.066696,64.928566 
	C114.382217,93.170815 84.876228,108.172310 58.811546,96.276100 
	C57.722176,95.778908 56.535664,95.494545 55.298851,95.078918 
	C55.298851,118.674309 55.298851,141.736572 55.298851,165.001160 
	C69.565262,165.001160 83.532578,165.001160 98.499855,165.001160 
M288.949524,122.844261 
	C290.312012,124.070435 292.089539,125.053902 292.971008,126.561356 
	C299.765259,138.180801 306.340790,149.928070 313.119568,161.556732 
	C313.930420,162.947708 315.494720,164.759659 316.810669,164.846420 
	C322.376892,165.213455 327.981262,165.001953 334.219482,165.001953 
	C325.426300,149.839539 316.977875,135.271667 308.497314,120.648308 
	C309.568756,120.081398 310.138489,119.744110 310.736725,119.468689 
	C324.538177,113.114243 331.727264,100.462006 329.724854,86.037384 
	C327.584106,70.615959 317.541046,59.340683 302.135468,58.349186 
	C284.246826,57.197884 266.227264,58.080841 247.997223,58.080841 
	C247.997223,93.472786 247.997223,129.035522 247.997223,164.740753 
	C253.389603,164.740753 258.625641,164.740753 264.133423,164.740753 
	C264.133423,157.674408 264.133423,150.869247 264.133423,144.064087 
	C264.133423,137.114059 264.133423,130.164017 264.133423,122.842644 
	C272.451904,122.842644 280.252655,122.842644 288.949524,122.844261 
M511.541656,117.296677 
	C511.366486,122.269020 510.719788,127.277748 511.100250,132.207199 
	C512.514282,150.527603 526.958679,164.815323 545.108032,166.195526 
	C556.512085,167.062790 566.772949,164.445114 575.276001,155.148880 
	C575.471252,158.994827 575.618958,161.904510 575.761169,164.704758 
	C581.035034,164.704758 585.954407,164.704758 590.733276,164.704758 
	C590.733276,127.531769 590.733276,90.659309 590.733276,53.895470 
	C585.499451,53.895470 580.610596,53.895470 575.237671,53.895470 
	C575.237671,68.805923 575.237671,83.314415 575.237671,98.304161 
	C554.850464,78.206856 517.788818,87.408066 511.541656,117.296677 
M614.256531,99.773026 
	C603.389771,113.151123 601.169739,128.028275 607.904907,143.700790 
	C614.508057,159.066132 627.195190,166.228958 643.571777,166.364532 
	C658.353577,166.486908 670.089600,160.369095 678.052490,147.209290 
	C674.096130,144.292831 670.403076,141.570511 666.706360,138.845444 
	C656.411804,153.388367 642.479797,153.454712 633.626648,149.839264 
	C625.906555,146.686523 620.746338,139.201416 621.272644,131.611801 
	C640.365601,131.611801 659.485901,131.611801 679.034729,131.611801 
	C680.917603,118.598404 678.447144,107.065010 669.196716,97.830879 
	C654.683716,83.343483 630.631714,84.155327 614.256531,99.773026 
M401.971252,97.524551 
	C387.048035,82.666847 358.912262,84.786110 345.850586,101.423973 
	C331.873871,119.227379 335.385620,146.724060 353.246399,159.226593 
	C372.277191,172.548141 398.721893,167.166840 411.008148,147.187622 
	C407.233185,144.415909 403.435791,141.627731 399.630005,138.833374 
	C389.840485,152.951828 375.838501,153.673233 366.467987,149.785446 
	C358.713898,146.568298 353.540436,138.857361 354.390015,131.515427 
	C373.457733,131.515427 392.568451,131.515427 412.039978,131.515427 
	C413.870270,118.667267 411.167236,107.513985 401.971252,97.524551 
M482.121735,142.499939 
	C482.121735,149.925156 482.121735,157.350388 482.121735,164.757294 
	C487.669830,164.757294 492.593658,164.757294 497.671661,164.757294 
	C497.671661,148.401001 498.392944,132.253769 497.467743,116.201431 
	C496.551880,100.311127 488.447723,90.907722 474.934662,88.369476 
	C463.241821,86.173126 452.150360,87.607208 443.110535,97.721184 
	C442.954834,94.240242 442.841614,91.708832 442.731140,89.239334 
	C437.332123,89.239334 432.404755,89.239334 427.340942,89.239334 
	C427.340942,114.531746 427.340942,139.575089 427.340942,164.643768 
	C432.623871,164.643768 437.659790,164.643768 442.869904,164.643768 
	C442.869904,149.809509 442.751373,135.338654 442.909210,120.870827 
	C443.025299,110.230606 451.696899,102.289909 462.891724,102.184937 
	C474.271820,102.078232 481.504730,108.703659 481.961212,120.028008 
	C482.249359,127.175858 482.083832,134.341995 482.121735,142.499939 
M733.907898,87.784729 
	C724.534241,86.689949 716.692627,89.444641 710.707336,98.547783 
	C710.483032,94.397781 710.342102,91.790840 710.206726,89.285248 
	C704.933411,89.285248 700.008728,89.285248 695.152588,89.285248 
	C695.152588,114.625198 695.152588,139.676773 695.152588,164.727783 
	C700.340454,164.727783 705.241394,164.727783 710.482605,164.727783 
	C710.482605,159.653824 710.440308,154.846634 710.491272,150.040421 
	C710.604248,139.391052 710.258545,128.704285 711.053406,118.104256 
	C711.782654,108.378120 719.135193,102.211288 728.870544,102.069412 
	C732.112671,102.022163 735.365906,102.732704 738.945068,103.133934 
	C739.439392,98.569954 739.933716,94.006142 740.448059,89.257225 
	C738.248413,88.727158 736.499329,88.305679 733.907898,87.784729 
z"/>
<path fill="#FEFEFE" opacity="1.000000" stroke="none" 
	d="
M97.999870,165.001160 
	C83.532578,165.001160 69.565262,165.001160 55.298851,165.001160 
	C55.298851,141.736572 55.298851,118.674309 55.298851,95.078918 
	C56.535664,95.494545 57.722176,95.778908 58.811546,96.276100 
	C84.876228,108.172310 114.382217,93.170815 119.066696,64.928566 
	C123.193459,40.048630 146.577271,31.716463 162.537888,38.001270 
	C176.450699,43.479706 184.984055,57.879417 182.963058,73.208801 
	C181.101288,87.330490 169.015198,98.867599 154.378922,100.107674 
	C148.588272,100.598297 142.738617,100.388145 136.916046,100.506958 
	C125.377159,100.742409 119.151482,107.037796 119.118057,118.633614 
	C119.073990,133.920258 119.107231,149.207108 119.107231,165.001160 
	C112.045029,165.001160 105.272446,165.001160 97.999870,165.001160 
z"/>
<path fill="#FCFCFC" opacity="1.000000" stroke="none" 
	d="
M288.501465,122.843452 
	C280.252655,122.842644 272.451904,122.842644 264.133423,122.842644 
	C264.133423,130.164017 264.133423,137.114059 264.133423,144.064087 
	C264.133423,150.869247 264.133423,157.674408 264.133423,164.740753 
	C258.625641,164.740753 253.389603,164.740753 247.997223,164.740753 
	C247.997223,129.035522 247.997223,93.472786 247.997223,58.080841 
	C266.227264,58.080841 284.246826,57.197884 302.135468,58.349186 
	C317.541046,59.340683 327.584106,70.615959 329.724854,86.037384 
	C331.727264,100.462006 324.538177,113.114243 310.736725,119.468689 
	C310.138489,119.744110 309.568756,120.081398 308.497314,120.648308 
	C316.977875,135.271667 325.426300,149.839539 334.219482,165.001953 
	C327.981262,165.001953 322.376892,165.213455 316.810669,164.846420 
	C315.494720,164.759659 313.930420,162.947708 313.119568,161.556732 
	C306.340790,149.928070 299.765259,138.180801 292.971008,126.561356 
	C292.089539,125.053902 290.312012,124.070435 288.501465,122.843452 
M311.706146,96.859535 
	C314.491058,83.809044 309.913055,74.349060 298.789703,73.290802 
	C287.450256,72.211967 275.928253,73.052185 264.391602,73.052185 
	C264.391602,84.594063 264.391602,96.151047 264.391602,107.890862 
	C275.141174,107.890862 285.619781,108.195305 296.070068,107.782982 
	C302.946472,107.511673 308.462982,104.253136 311.706146,96.859535 
z"/>
<path fill="#FCFCFC" opacity="1.000000" stroke="none" 
	d="
M511.664124,116.882553 
	C517.788818,87.408066 554.850464,78.206856 575.237671,98.304161 
	C575.237671,83.314415 575.237671,68.805923 575.237671,53.895470 
	C580.610596,53.895470 585.499451,53.895470 590.733276,53.895470 
	C590.733276,90.659309 590.733276,127.531769 590.733276,164.704758 
	C585.954407,164.704758 581.035034,164.704758 575.761169,164.704758 
	C575.618958,161.904510 575.471252,158.994827 575.276001,155.148880 
	C566.772949,164.445114 556.512085,167.062790 545.108032,166.195526 
	C526.958679,164.815323 512.514282,150.527603 511.100250,132.207199 
	C510.719788,127.277748 511.366486,122.269020 511.664124,116.882553 
M568.280701,144.760941 
	C569.537598,143.008438 571.021362,141.374847 572.013000,139.483292 
	C576.901978,130.157440 576.663818,120.819321 570.845947,112.082336 
	C564.700745,102.853775 555.427795,100.255844 545.014282,102.146370 
	C536.122314,103.760666 530.271912,109.465683 527.436646,118.039230 
	C523.710693,129.306152 527.940735,142.084991 537.446899,148.598190 
	C544.705322,153.571320 558.261169,154.632767 568.280701,144.760941 
z"/>
<path fill="#FAFAFA" opacity="1.000000" stroke="none" 
	d="
M614.499634,99.514694 
	C630.631714,84.155327 654.683716,83.343483 669.196716,97.830879 
	C678.447144,107.065010 680.917603,118.598404 679.034729,131.611801 
	C659.485901,131.611801 640.365601,131.611801 621.272644,131.611801 
	C620.746338,139.201416 625.906555,146.686523 633.626648,149.839264 
	C642.479797,153.454712 656.411804,153.388367 666.706360,138.845444 
	C670.403076,141.570511 674.096130,144.292831 678.052490,147.209290 
	C670.089600,160.369095 658.353577,166.486908 643.571777,166.364532 
	C627.195190,166.228958 614.508057,159.066132 607.904907,143.700790 
	C601.169739,128.028275 603.389771,113.151123 614.499634,99.514694 
M624.887878,119.836105 
	C637.779419,119.836105 650.670959,119.836105 663.636475,119.836105 
	C661.853516,107.735298 653.484619,101.276756 641.651001,101.568443 
	C631.270325,101.824326 620.679504,111.619659 621.525940,119.835938 
	C622.333435,119.835938 623.158997,119.835938 624.887878,119.836105 
z"/>
<path fill="#FAFAFA" opacity="1.000000" stroke="none" 
	d="
M402.232117,97.769287 
	C411.167236,107.513985 413.870270,118.667267 412.039978,131.515427 
	C392.568451,131.515427 373.457733,131.515427 354.390015,131.515427 
	C353.540436,138.857361 358.713898,146.568298 366.467987,149.785446 
	C375.838501,153.673233 389.840485,152.951828 399.630005,138.833374 
	C403.435791,141.627731 407.233185,144.415909 411.008148,147.187622 
	C398.721893,167.166840 372.277191,172.548141 353.246399,159.226593 
	C335.385620,146.724060 331.873871,119.227379 345.850586,101.423973 
	C358.912262,84.786110 387.048035,82.666847 402.232117,97.769287 
M382.569733,102.358978 
	C367.496857,99.676750 354.864258,107.449203 354.486450,119.496002 
	C368.512695,119.496002 382.541443,119.496002 396.733093,119.496002 
	C395.582214,110.910995 390.943054,105.602951 382.569733,102.358978 
z"/>
<path fill="#FAFAFA" opacity="1.000000" stroke="none" 
	d="
M482.121735,141.999939 
	C482.083832,134.341995 482.249359,127.175858 481.961212,120.028008 
	C481.504730,108.703659 474.271820,102.078232 462.891724,102.184937 
	C451.696899,102.289909 443.025299,110.230606 442.909210,120.870827 
	C442.751373,135.338654 442.869904,149.809509 442.869904,164.643768 
	C437.659790,164.643768 432.623871,164.643768 427.340942,164.643768 
	C427.340942,139.575089 427.340942,114.531746 427.340942,89.239334 
	C432.404755,89.239334 437.332123,89.239334 442.731140,89.239334 
	C442.841614,91.708832 442.954834,94.240242 443.110535,97.721184 
	C452.150360,87.607208 463.241821,86.173126 474.934662,88.369476 
	C488.447723,90.907722 496.551880,100.311127 497.467743,116.201431 
	C498.392944,132.253769 497.671661,148.401001 497.671661,164.757294 
	C492.593658,164.757294 487.669830,164.757294 482.121735,164.757294 
	C482.121735,157.350388 482.121735,149.925156 482.121735,141.999939 
z"/>
<path fill="#FDFDFD" opacity="1.000000" stroke="none" 
	d="
M734.329102,87.834473 
	C736.499329,88.305679 738.248413,88.727158 740.448059,89.257225 
	C739.933716,94.006142 739.439392,98.569954 738.945068,103.133934 
	C735.365906,102.732704 732.112671,102.022163 728.870544,102.069412 
	C719.135193,102.211288 711.782654,108.378120 711.053406,118.104256 
	C710.258545,128.704285 710.604248,139.391052 710.491272,150.040421 
	C710.440308,154.846634 710.482605,159.653824 710.482605,164.727783 
	C705.241394,164.727783 700.340454,164.727783 695.152588,164.727783 
	C695.152588,139.676773 695.152588,114.625198 695.152588,89.285248 
	C700.008728,89.285248 704.933411,89.285248 710.206726,89.285248 
	C710.342102,91.790840 710.483032,94.397781 710.707336,98.547783 
	C716.692627,89.444641 724.534241,86.689949 734.329102,87.834473 
z"/>
<path fill="#111111" opacity="1.000000" stroke="none" 
	d="
M311.538025,97.212158 
	C308.462982,104.253136 302.946472,107.511673 296.070068,107.782982 
	C285.619781,108.195305 275.141174,107.890862 264.391602,107.890862 
	C264.391602,96.151047 264.391602,84.594063 264.391602,73.052185 
	C275.928253,73.052185 287.450256,72.211967 298.789703,73.290802 
	C309.913055,74.349060 314.491058,83.809044 311.538025,97.212158 
z"/>
<path fill="#0F0F0F" opacity="1.000000" stroke="none" 
	d="
M568.013855,145.002502 
	C558.261169,154.632767 544.705322,153.571320 537.446899,148.598190 
	C527.940735,142.084991 523.710693,129.306152 527.436646,118.039230 
	C530.271912,109.465683 536.122314,103.760666 545.014282,102.146370 
	C555.427795,100.255844 564.700745,102.853775 570.845947,112.082336 
	C576.663818,120.819321 576.901978,130.157440 572.013000,139.483292 
	C571.021362,141.374847 569.537598,143.008438 568.013855,145.002502 
z"/>
<path fill="#141414" opacity="1.000000" stroke="none" 
	d="
M624.436157,119.836021 
	C623.158997,119.835938 622.333435,119.835938 621.525940,119.835938 
	C620.679504,111.619659 631.270325,101.824326 641.651001,101.568443 
	C653.484619,101.276756 661.853516,107.735298 663.636475,119.836105 
	C650.670959,119.836105 637.779419,119.836105 624.436157,119.836021 
z"/>
<path fill="#141414" opacity="1.000000" stroke="none" 
	d="
M382.953247,102.517639 
	C390.943054,105.602951 395.582214,110.910995 396.733093,119.496002 
	C382.541443,119.496002 368.512695,119.496002 354.486450,119.496002 
	C354.864258,107.449203 367.496857,99.676750 382.953247,102.517639 
z"/>
</svg>